<?xml version="1.0" standalone="no"?><!DOCTYPE svg PUBLIC "-//W3C//DTD SVG 1.1//EN" "http://www.w3.org/Graphics/SVG/1.1/DTD/svg11.dtd"><svg t="1693531669865" class="icon" viewBox="0 0 1024 1024" version="1.1" xmlns="http://www.w3.org/2000/svg" p-id="10162" xmlns:xlink="http://www.w3.org/1999/xlink" width="200" height="200"><path d="M768 810.666667V213.333333c0-25.6 17.066667-42.666667 42.666667-42.666666h85.333333c25.6 0 42.666667 17.066667 42.666667 42.666666v597.333334c0 25.6-17.066667 42.666667-42.666667 42.666666h-85.333333c-25.6 0-42.666667-17.066667-42.666667-42.666666zM85.333333 810.666667V213.333333c0-25.6 17.066667-42.666667 42.666667-42.666666h85.333333c25.6 0 42.666667 17.066667 42.666667 42.666666v597.333334c0 25.6-17.066667 42.666667-42.666667 42.666666H128c-25.6 0-42.666667-17.066667-42.666667-42.666666z" fill="" p-id="10163"></path><path d="M128 256h298.666667c25.6 0 42.666667 17.066667 42.666666 42.666667v42.666666c0 25.6-17.066667 42.666667-42.666666 42.666667H128c-25.6 0-42.666667-17.066667-42.666667-42.666667V298.666667c0-25.6 17.066667-42.666667 42.666667-42.666667zM597.333333 256h298.666667c25.6 0 42.666667 17.066667 42.666667 42.666667v42.666666c0 25.6-17.066667 42.666667-42.666667 42.666667h-298.666667c-25.6 0-42.666667-17.066667-42.666666-42.666667V298.666667c0-25.6 17.066667-42.666667 42.666666-42.666667zM512 426.666667c-119.466667 0-213.333333 93.866667-213.333333 213.333333s93.866667 213.333333 213.333333 213.333333 213.333333-93.866667 213.333333-213.333333-93.866667-213.333333-213.333333-213.333333z m128 256H384c-21.333333 0-42.666667-21.333333-42.666667-42.666667s21.333333-42.666667 42.666667-42.666667h256c21.333333 0 42.666667 21.333333 42.666667 42.666667s-21.333333 42.666667-42.666667 42.666667z" fill="#BDC4CA" p-id="10164"></path></svg>
