<?xml version="1.0" standalone="no"?><!DOCTYPE svg PUBLIC "-//W3C//DTD SVG 1.1//EN" "http://www.w3.org/Graphics/SVG/1.1/DTD/svg11.dtd"><svg t="1693401591484" class="icon" viewBox="0 0 1024 1024" version="1.1" xmlns="http://www.w3.org/2000/svg" p-id="15319" xmlns:xlink="http://www.w3.org/1999/xlink" width="200" height="200"><path d="M756.149 892.721h-488.1c-24.262 0-44-19.738-44-44V168.99c0-24.262 19.738-44 44-44h488.1c24.262 0 44 19.738 44 44v679.73c0 24.262-19.738 44.001-44 44.001z m-468.099-64h448.1V188.99h-448.1v639.731z" fill="#ffffff" p-id="15320"></path><path d="M98.004 828.721h829.991v64H98.004zM657.522 710.999H371c-6.6 0-12-5.4-12-12v-202c0-6.6 5.4-12 12-12h286.522c6.6 0 12 5.4 12 12v202c0 6.6-5.4 12-12 12z" fill="#ffffff" p-id="15321"></path><path d="M515 617.999c-32.32 0-61.944-13.058-83.415-36.767C409.614 556.969 398 524.091 398 486.152c0-37.69 11.016-72.986 31.019-99.388 21.384-28.223 50.889-43.767 83.081-43.767 31.766 0 62.923 15.723 85.482 43.136C619.776 413.103 632 448.624 632 486.152c0 37.939-11.614 70.817-33.586 95.081-21.47 23.708-51.094 36.766-83.414 36.766z m-2.9-235.001c-41.551 0-74.1 45.311-74.1 103.154 0 54.079 31.664 91.847 77 91.847 45.337 0 77-37.769 77-91.847 0-55.916-36.59-103.154-79.9-103.154z" fill="#ffffff" p-id="15322"></path></svg>