<?xml version="1.0" standalone="no"?><!DOCTYPE svg PUBLIC "-//W3C//DTD SVG 1.1//EN" "http://www.w3.org/Graphics/SVG/1.1/DTD/svg11.dtd"><svg t="1693401182489" class="icon" viewBox="0 0 1024 1024" version="1.1" xmlns="http://www.w3.org/2000/svg" p-id="4317" xmlns:xlink="http://www.w3.org/1999/xlink" width="200" height="200"><path d="M247.504 261c0-105.104 86.896-191.896 191.896-191.896s192 86.896 192 191.896-86.896 192-192 192c-105 0-191.896-86.896-191.896-192z m-122.704 684c-31.2 0.504-57.2-24.4-57.696-56.2v-1.6c-0.104-191.904 148.696-351 337-369.2h39.504c43.696-3.6 105.104-14.6 137.296-43.696l14.6-10.904c61.4-51 97.8-123.296 97.8-202.896 0-141.504-116-256.896-260.6-256.896-134.2 0-249.696 116-249.696 256.896 0 79.6 35.896 151.896 97.8 202.896l18.2 10.904-18.208 7.296C113.8 546.6 2 705.8 2 886.8c-0.504 67.6 53.6 122.808 120.696 123.304H454c10.896 0 28.6-10.896 28.6-32.808 0-25.504-18.2-32.8-28.6-32.8H124.8v0.504zM979.976 685.68a18.536 18.536 0 0 1-11.856-4.344L742.32 489.72 516.44 681.336a18.288 18.288 0 1 1-23.648-27.904l237.728-201.688a18.272 18.272 0 0 1 23.6 0l237.744 201.688a18.24 18.24 0 0 1 2.12 25.76c-3.68 4.32-8.832 6.488-14.008 6.488z m-42 273.752H546.736a23.968 23.968 0 0 1-23.952-23.928v-290.32a18.296 18.296 0 0 1 36.592 0v277.592h365.952V645.184a18.288 18.288 0 0 1 36.576 0v290.312a24 24 0 0 1-23.928 23.936z m-85.824-91.328h-219.6a18.296 18.296 0 1 1 0-36.592h219.6a18.296 18.296 0 1 1 0 36.592z m0-73.056h-219.6a18.296 18.296 0 1 1 0-36.6h219.6a18.296 18.296 0 1 1 0 36.6z m0-72.616h-219.6a18.296 18.296 0 1 1 0-36.584h219.6a18.304 18.304 0 0 1 18.32 18.328 18.304 18.304 0 0 1-18.32 18.256z" p-id="4318"></path></svg>