<?xml version="1.0" standalone="no"?><!DOCTYPE svg PUBLIC "-//W3C//DTD SVG 1.1//EN" "http://www.w3.org/Graphics/SVG/1.1/DTD/svg11.dtd"><svg t="1693401444764" class="icon" viewBox="0 0 1024 1024" version="1.1" xmlns="http://www.w3.org/2000/svg" p-id="12658" xmlns:xlink="http://www.w3.org/1999/xlink" width="200" height="200"><path d="M872.512 264.704c21.312 21.312 32.256 47.68 32.832 79.168v448c-0.576 31.488-11.52 57.856-32.832 79.168s-47.68 32.256-79.168 32.832h-560c-31.488-0.576-57.92-11.52-79.168-32.832-21.312-21.312-32.256-47.68-32.832-79.168v-448c0.576-31.488 11.52-57.856 32.832-79.168s47.68-32.256 79.168-32.832h560c31.488 0.64 57.856 11.52 79.168 32.832zM184.768 168.448c-4.992-4.928-7.424-11.84-7.424-20.544s2.496-15.616 7.424-20.544c4.928-4.928 11.84-7.424 20.544-7.424h616c8.768 0 15.616 2.496 20.544 7.424 4.928 4.992 7.424 11.84 7.424 20.544s-2.496 15.616-7.424 20.544c-4.992 4.992-11.84 7.424-20.544 7.424H205.312c-8.768 0-15.616-2.432-20.544-7.424z m356.544 432.704v-33.28H625.28c8.768 0 15.616-2.496 20.544-7.424 4.928-4.928 7.424-11.84 7.424-20.544s-2.496-15.616-7.424-20.544c-4.992-4.928-11.84-7.424-20.544-7.424h-50.752l56-56c5.824-5.824 8.768-12.416 8.768-19.712 0-7.296-2.944-13.696-8.768-19.264-5.824-5.568-12.224-8.32-19.264-8.32s-13.44 2.624-19.264 7.872l-78.72 78.72-78.72-72.576c-5.824-5.824-12.224-8.768-19.264-8.768s-13.44 2.944-19.264 8.768c-5.824 5.824-8.768 12.224-8.768 19.264s2.944 13.44 8.768 19.264l56 50.752H401.28c-8.768 0-15.616 2.496-20.544 7.424-4.992 4.992-7.424 11.84-7.424 20.544s2.496 15.616 7.424 20.544c4.928 4.992 11.84 7.424 20.544 7.424h83.968v33.28H401.344c-8.768 0.576-15.616 3.392-20.544 8.32-4.992 4.992-7.424 11.648-7.424 20.096s2.496 15.168 7.424 20.096c4.928 4.992 11.84 7.424 20.544 7.424h83.968v45.504c0 8.192 2.496 14.72 7.424 19.712 4.928 4.992 11.84 7.424 20.544 7.424s15.616-2.496 20.544-7.424c4.928-4.928 7.424-11.52 7.424-19.712v-45.504h83.968c8.768 0 15.616-2.496 20.544-7.424 4.928-4.928 7.424-11.648 7.424-20.096s-2.496-15.168-7.424-20.096c-4.992-4.928-11.84-7.744-20.544-8.32H541.312z" p-id="12659" fill=""></path></svg>
