<?xml version="1.0" standalone="no"?><!DOCTYPE svg PUBLIC "-//W3C//DTD SVG 1.1//EN" "http://www.w3.org/Graphics/SVG/1.1/DTD/svg11.dtd"><svg t="1693401254071" class="icon" viewBox="0 0 1024 1024" version="1.1" xmlns="http://www.w3.org/2000/svg" p-id="6269" xmlns:xlink="http://www.w3.org/1999/xlink" width="200" height="200"><path d="M514.5 607.087c78.012 0 173.59 10.1 286.735 30.299 38.633 6.897 66.765 40.496 66.765 79.74v192.508c0 5.523-4.477 10-10 10H171c-5.523 0-10-4.477-10-10V717.125c0-39.243 28.132-72.842 66.765-79.74 113.145-20.198 208.723-30.298 286.735-30.298z m203.347-245.085C713.644 472.064 623.091 560 512 560c-111.091 0-201.644-87.936-205.847-197.998h411.694zM512 66.002c16.17 0 31.905 1.863 47.002 5.386L559 172a6 6 0 0 0 6 6h52a6 6 0 0 0 6-6l0.001-73.565C680.135 135.05 718 199.105 718 272.002c0 0.667-0.003 1.333-0.01 1.999H747c5.523-0.001 10 4.476 10 9.999v29c0 5.523-4.477 10-10 10H271c-5.523 0-10-4.477-10-10v-29c0-5.523 4.477-10 10-10h35.01c-0.007-0.665-0.01-1.331-0.01-1.998 0-72.898 37.865-136.952 95-173.567V172a6 6 0 0 0 6 6h52a6 6 0 0 0 6-6V71.388c15.096-3.523 30.83-5.386 47-5.386z" fill="#000000" p-id="6270"></path></svg>