<?xml version="1.0" standalone="no"?><!DOCTYPE svg PUBLIC "-//W3C//DTD SVG 1.1//EN" "http://www.w3.org/Graphics/SVG/1.1/DTD/svg11.dtd"><svg t="1693401483138" class="icon" viewBox="0 0 1024 1024" version="1.1" xmlns="http://www.w3.org/2000/svg" p-id="14236" xmlns:xlink="http://www.w3.org/1999/xlink" width="200" height="200"><path d="M512 496.5c84.4 0 152.5-68.1 152.5-152.5S596.4 191.5 512 191.5 359.5 259.6 359.5 344 427.6 496.5 512 496.5z m-3.7-33.9c-14.9 0-26.9-12.1-26.9-26.9s12.1-26.9 26.9-26.9c14.9 0 26.9 12.1 26.9 26.9s-12 26.9-26.9 26.9z m44.5-200.3l-16.3 100.8c-5.4 32.7-49 32.7-51.7 0l-10.9-100.8c-5.5-38.1 81.7-38.1 78.9 0z" p-id="14237" fill="#ffffff"></path><path d="M832 64H192c-17.6 0-32 14.4-32 32v832c0 17.6 14.4 32 32 32h640c17.6 0 32-14.4 32-32V96c0-17.6-14.4-32-32-32z m-40 824H232V136h560v752z" p-id="14238" fill="#ffffff"></path><path d="M318 636h388c8.8 0 16-7.2 16-16v-28c0-8.8-7.2-16-16-16H318c-8.8 0-16 7.2-16 16v28c0 8.8 7.2 16 16 16zM318 774h388c8.8 0 16-7.2 16-16v-28c0-8.8-7.2-16-16-16H318c-8.8 0-16 7.2-16 16v28c0 8.8 7.2 16 16 16z" p-id="14239" fill="#ffffff"></path></svg>