<?xml version="1.0" standalone="no"?><!DOCTYPE svg PUBLIC "-//W3C//DTD SVG 1.1//EN" "http://www.w3.org/Graphics/SVG/1.1/DTD/svg11.dtd"><svg t="1693531930168" class="icon" viewBox="0 0 1024 1024" version="1.1" xmlns="http://www.w3.org/2000/svg" p-id="12502" xmlns:xlink="http://www.w3.org/1999/xlink" width="200" height="200"><path d="M512 496.5c84.4 0 152.5-68.1 152.5-152.5S596.4 191.5 512 191.5 359.5 259.6 359.5 344 427.6 496.5 512 496.5z m-3.7-33.9c-14.9 0-26.9-12.1-26.9-26.9s12.1-26.9 26.9-26.9c14.9 0 26.9 12.1 26.9 26.9s-12 26.9-26.9 26.9z m44.5-200.3l-16.3 100.8c-5.4 32.7-49 32.7-51.7 0l-10.9-100.8c-5.5-38.1 81.7-38.1 78.9 0zM318 636h80.8c8.8 0 16-7.2 16-16v-28c0-8.8-7.2-16-16-16H318c-8.8 0-16 7.2-16 16v28c0 8.8 7.2 16 16 16zM312.4 774h63.3c5.7 0 10.4-7.2 10.4-16v-28c0-8.8-4.7-16-10.4-16h-63.3c-5.7 0-10.4 7.2-10.4 16v28c0 8.8 4.7 16 10.4 16z" p-id="12503"></path><path d="M384.9 888H232V136h560v343c0 8.8 7.2 16 16 16h40c8.8 0 16-7.2 16-16V96c0-17.6-14.4-32-32-32H192c-17.6 0-32 14.4-32 32v832c0 17.6 14.4 32 32 32h192.9c8.8 0 16-7.2 16-16v-40c0-8.8-7.1-16-16-16z" p-id="12504"></path><path d="M855.8 783.4c-0.1 0-0.1 0 0 0l-27.6-23.6c1.1-8 1.6-16.1 1.6-24.1s-0.5-16.1-1.6-24.1l27.6-23.6c7.6-6.5 10.5-17.2 7.1-26.7l-0.5-1.3c-9-25.2-22.4-48.4-39.8-68.9l-0.8-1c-6.6-7.7-17-10.6-26.7-7.2l-34.2 12.2c-12.8-9.9-26.7-17.9-41.5-24l-6.6-35.8c-1.8-9.9-9.7-17.7-19.6-19.5l-1.3-0.2c-26-4.7-53.4-4.7-79.4 0l-1.3 0.2c-9.9 1.8-17.8 9.7-19.6 19.5l-6.7 36c-14.7 6.1-28.6 14.1-41.2 23.9L509.1 583c-9.5-3.3-20.2-0.4-26.6 7.2l-0.9 1.1c-17.4 20.5-30.7 43.7-39.8 68.9l-0.4 1.2c-3.4 9.4-0.6 20.2 7.1 26.8l28 23.9c-1 7.8-1.6 15.7-1.6 23.7s0.5 16 1.6 23.7l-28 23.9c-7.6 6.5-10.5 17.2-7.1 26.7l0.5 1.3c9.1 25.3 22.5 48.4 39.8 68.9l0.8 1c6.6 7.7 17 10.6 26.7 7.2l34.5-12.3c12.7 9.9 26.5 17.9 41.2 23.9l6.7 36c1.8 9.9 9.7 17.7 19.6 19.5l1.3 0.2c13.1 2.4 26.4 3.5 39.7 3.5s26.7-1.2 39.7-3.6l1.3-0.2c9.9-1.8 17.8-9.7 19.6-19.5l6.6-35.8c14.9-6.1 28.8-14.1 41.5-24l34.3 12.2c9.5 3.3 20.2 0.4 26.6-7.2l0.9-1.1c17.4-20.5 30.7-43.7 39.8-68.8v-0.1l0.4-1.2c3.3-9.4 0.5-20-7.1-26.6z m-326.7 0.2c2.4-2 3.5-5.2 3-8.3l-3.1-19.1c-1.1-6.8-1.7-13.7-1.7-20.4 0-7 0.6-13.8 1.7-20.4l3.1-19.2c0.5-3.1-0.6-6.2-3-8.3l-31-26.5c3.7-7.6 7.9-15 12.8-22.1l38.3 13.6c3 1.1 6.3 0.5 8.7-1.5l15-12.4c10.6-8.7 22.4-15.6 35.2-20.4l18.2-6.9c3-1.1 5.1-3.7 5.7-6.8l7.3-39.9c8.5-0.6 17-0.6 25.5 0l7.3 39.8c0.6 3.1 2.7 5.7 5.7 6.8l18.2 6.8c12.9 4.8 24.8 11.7 35.4 20.5l15 12.4c2.4 2 5.7 2.6 8.7 1.5l38.1-13.5c4.8 7 9 14.4 12.8 22.1l-30.6 26.2c-2.4 2-3.5 5.2-3 8.3l3.1 19.1c1.1 6.8 1.7 13.7 1.7 20.6s-0.6 13.8-1.7 20.6l-3.2 19.2c-0.5 3.1 0.6 6.3 3 8.3l30.6 26.2c-3.7 7.6-7.9 15-12.8 22.1L755 818.5c-3-1.1-6.3-0.5-8.7 1.5l-15 12.4c-10.7 8.8-22.6 15.7-35.4 20.5l-18.3 6.8c-3 1.1-5.1 3.7-5.7 6.8l-7.3 39.8c-8.5 0.6-17 0.6-25.5 0l-7.3-39.9c-0.6-3.1-2.7-5.7-5.6-6.8l-18.1-7c-12.7-4.8-24.6-11.7-35.2-20.4L558 820c-2.4-2-5.8-2.6-8.7-1.5L511 832.1c-4.8-7-9-14.4-12.8-22.1l30.9-26.4z" p-id="12505"></path><path d="M652.1 735.7m-73 0a73 73 0 1 0 146 0 73 73 0 1 0-146 0Z" p-id="12506"></path></svg>